<svg width="263" height="89" viewBox="0 0 263 89" fill="none" xmlns="http://www.w3.org/2000/svg">
<path fill-rule="evenodd" clip-rule="evenodd" d="M67.4075 69.2566L46.3383 82.4695C45.5237 82.9803 44.494 83.0015 43.6591 82.5245L23.3076 70.8976C21.395 69.8063 19.5297 68.5961 17.9949 66.9798C12.3122 60.9862 11.0332 54.0982 11.1631 51.1116L10.6633 13.2393C10.6491 12.1588 11.304 11.1764 12.317 10.8002C37.5352 1.43567 63.9023 6.53967 75.6049 10.8273C76.5887 11.1877 77.2156 12.1261 77.2294 13.1737L77.73 51.1116C77.73 57.3104 74.318 64.5142 67.4075 69.2566ZM55.4225 14.1936C56.0311 13.8181 55.8559 12.8984 55.1497 12.7863C38.397 10.1282 22.764 13.5496 17.7781 16.156C17.3864 16.3607 17.1652 16.7701 17.1592 17.2121L16.732 48.6909C16.1104 54.9563 20.778 60.9059 23.2828 63.1922C23.3479 63.2516 23.4172 63.3014 23.4933 63.3457L44.1287 75.3733C44.5481 75.6177 45.0686 75.6089 45.4795 75.3505L62.9255 64.3785C65.5347 62.7375 68.132 60.8915 69.659 58.1428C71.5507 54.7406 71.7785 51.5419 71.5148 49.5919C71.446 49.0827 70.8802 48.8564 70.44 49.1214L44.8686 64.5158C44.4553 64.7645 43.9386 64.7649 43.525 64.5167L26.9004 54.5393C26.5077 54.3036 26.2675 53.8792 26.2675 53.4212V32.9104C26.2675 32.4581 26.5018 32.0381 26.8867 31.8007L55.4225 14.1936ZM63.4809 28.5105C63.4763 28.5019 63.4655 28.4985 63.4568 28.5031L66.8466 26.322C67.2343 26.0726 67.7525 26.2107 67.9646 26.6201L69.5953 29.7679C69.7842 30.1324 69.6592 30.5808 69.3091 30.7951L66.5545 32.4809C66.1944 32.7013 65.7244 32.5962 65.4924 32.2434L65.3678 32.0538C65.1345 31.699 64.6607 31.5951 64.3003 31.8197L56.8322 36.4741C56.6029 36.617 56.4636 36.868 56.4636 37.1381V47.1095C56.4636 47.7119 57.116 48.0883 57.6375 47.7868L64.6176 43.7516C64.9931 43.5345 65.1204 43.0534 64.9013 42.6791L64.7305 42.3871C64.5134 42.0162 64.6362 41.5396 65.0055 41.3197L67.9393 39.5729C68.3154 39.349 68.802 39.4771 69.019 39.8572L70.6942 42.7911C70.9044 43.1592 70.7833 43.6276 70.4211 43.8477L67.5185 45.6115C67.1611 45.8287 66.6955 45.7167 66.4759 45.3608C66.2589 45.009 65.8008 44.8949 65.4441 45.1037L45.1276 56.9955C44.8898 57.1347 44.5962 57.1385 44.3548 57.0055L32.8967 50.6917C32.6498 50.5556 32.4952 50.2973 32.4919 50.0154L32.3291 35.7804C32.3259 35.5035 32.4693 35.2456 32.7062 35.1022L55.4581 21.3251C55.8237 21.1037 55.944 20.6297 55.7281 20.2607L55.5562 19.967C55.3364 19.5914 55.4653 19.1087 55.8431 18.8927L58.9282 17.1287C59.3081 16.9115 59.7923 17.0481 60.0026 17.4319L61.7081 20.5447C61.9092 20.9117 61.7859 21.3719 61.4283 21.5893L58.4805 23.3806C58.1387 23.5883 57.6937 23.4891 57.4725 23.1558C57.2533 22.8256 56.814 22.7247 56.4726 22.9262L46.9341 28.5551C46.4226 28.8569 46.4208 29.5963 46.9308 29.9007L55.6242 35.0886C55.8762 35.239 56.1911 35.2357 56.4399 35.0801L63.7275 30.5227C64.0759 30.3048 64.1964 29.8545 64.0033 29.4917L63.4809 28.5105Z" fill="#101828"/>
<path d="M129.882 64.3056C118.115 64.3056 110.491 56.1292 110.491 43.478C110.491 30.9373 118.391 22.5953 130.213 22.5953C139.771 22.5953 146.897 28.1751 148.279 36.8486H140.82C139.439 32.1527 135.406 29.3905 130.048 29.3905C122.589 29.3905 117.894 34.8045 117.894 43.4228C117.894 51.9858 122.645 57.5104 130.048 57.5104C135.517 57.5104 139.716 54.6376 141.041 50.1627H148.389C146.842 58.6705 139.439 64.3056 129.882 64.3056Z" fill="#101828"/>
<path d="M151.361 76.2938V70.6588H155.394C158.045 70.6588 159.703 70.0511 160.863 66.8468L161.636 64.8028L150.642 36.3514H157.769L164.785 56.2397L172.188 36.3514H179.149L165.78 69.7196C163.736 74.8022 160.863 76.9015 156.388 76.9015C154.51 76.9015 152.852 76.6805 151.361 76.2938Z" fill="#101828"/>
<path d="M180.27 36.3514H184.193V33.0367C184.193 25.6338 188.115 22.54 194.026 22.54C195.076 22.54 196.347 22.5953 197.507 22.8163V28.5618H195.131C191.706 28.5618 190.878 30.3296 190.878 33.0367V36.3514H197.396V41.9864H190.878V63.6426H184.193V41.9864H180.27V36.3514Z" fill="#101828"/>
<path d="M218.824 36.2409V42.4836H216.338C211.477 42.4836 208.438 45.0802 208.438 50.3837V63.6426H201.698V36.4066H208.051L208.438 40.3843C209.598 37.6773 212.195 35.8542 215.841 35.8542C216.78 35.8542 217.719 35.9647 218.824 36.2409Z" fill="#101828"/>
<path d="M226.756 30.8821C224.436 30.8821 222.613 29.059 222.613 26.7939C222.613 24.5289 224.436 22.761 226.756 22.761C228.966 22.761 230.789 24.5289 230.789 26.7939C230.789 29.059 228.966 30.8821 226.756 30.8821ZM223.386 63.6426V36.3514H230.126V63.6426H223.386Z" fill="#101828"/>
<path d="M243.83 63.6426H237.09V36.3514H243.333L243.885 39.8871C245.598 37.1248 248.912 35.5227 252.614 35.5227C259.464 35.5227 263 39.7766 263 46.848V63.6426H256.26V48.4501C256.26 43.8648 253.995 41.6549 250.514 41.6549C246.371 41.6549 243.83 44.5277 243.83 48.9473V63.6426Z" fill="#101828"/>
</svg>
