<svg width="169" height="169" viewBox="0 0 169 169" fill="none" xmlns="http://www.w3.org/2000/svg">
<path fill-rule="evenodd" clip-rule="evenodd" d="M128.615 132.023L88.5709 157.135C87.0226 158.106 85.0656 158.146 83.4787 157.24L44.7985 135.142C41.1634 133.068 37.618 130.767 34.701 127.695C23.9004 116.304 21.4695 103.212 21.7164 97.5361L20.7665 25.5555C20.7394 23.502 21.9843 21.6348 23.9095 20.9198C71.8396 3.12147 121.953 12.8222 144.195 20.9712C146.065 21.6563 147.257 23.4398 147.283 25.431L148.234 97.5361C148.234 109.318 141.749 123.009 128.615 132.023ZM105.836 27.3693C106.993 26.6556 106.66 24.9076 105.318 24.6946C73.4774 19.6426 43.7652 26.1453 34.289 31.099C33.5444 31.4882 33.1242 32.2662 33.1128 33.1063L32.3008 92.9352C31.1194 104.843 39.9907 116.151 44.7514 120.497C44.875 120.61 45.0068 120.704 45.1514 120.788L84.3712 143.648C85.1683 144.113 86.1576 144.096 86.9386 143.605L120.097 122.751C125.056 119.632 129.992 116.124 132.894 110.9C136.49 104.433 136.923 98.3539 136.422 94.6478C136.291 93.68 135.215 93.2498 134.379 93.7535L85.7774 123.012C84.9921 123.485 84.0099 123.486 83.2239 123.014L51.6269 104.051C50.8806 103.603 50.424 102.796 50.424 101.926V62.9426C50.424 62.0831 50.8694 61.2849 51.6009 60.8335L105.836 27.3693ZM121.152 54.5803C121.143 54.5638 121.123 54.5574 121.106 54.5661L127.549 50.4207C128.286 49.9466 129.271 50.2092 129.674 50.9872L132.773 56.97C133.132 57.6628 132.895 58.5151 132.229 58.9224L126.994 62.1264C126.31 62.5452 125.416 62.3455 124.975 61.675L124.738 61.3147C124.295 60.6402 123.395 60.4427 122.71 60.8697L108.516 69.7159C108.08 69.9874 107.815 70.4645 107.815 70.9779V89.9296C107.815 91.0746 109.055 91.79 110.046 91.2169L123.313 83.5475C124.026 83.135 124.268 82.2207 123.852 81.5092L123.527 80.9542C123.115 80.2492 123.348 79.3435 124.05 78.9256L129.626 75.6055C130.341 75.1799 131.266 75.4234 131.678 76.1458L134.862 81.7221C135.261 82.4216 135.031 83.3119 134.343 83.7302L128.826 87.0826C128.147 87.4954 127.262 87.2825 126.845 86.6061C126.432 85.9375 125.561 85.7205 124.883 86.1173L86.2698 108.719C85.8177 108.984 85.2597 108.991 84.801 108.738L63.0235 96.738C62.5542 96.4794 62.2604 95.9884 62.2543 95.4526L61.9448 68.3974C61.9388 67.8712 62.2113 67.381 62.6615 67.1084L105.904 40.9235C106.599 40.5027 106.827 39.6019 106.417 38.9006L106.09 38.3423C105.673 37.6285 105.918 36.711 106.636 36.3005L112.499 32.9478C113.221 32.5349 114.142 32.7947 114.541 33.5242L117.783 39.4403C118.165 40.1378 117.931 41.0126 117.251 41.4256L111.649 44.8302C110.999 45.2251 110.153 45.0365 109.733 44.4031C109.316 43.7755 108.481 43.5837 107.832 43.9665L89.7033 54.6649C88.731 55.2386 88.7276 56.6439 89.697 57.2224L106.22 67.0827C106.699 67.3685 107.297 67.3623 107.77 67.0665L121.621 58.4047C122.283 57.9905 122.512 57.1346 122.145 56.4451L121.152 54.5803Z" fill="#101828"/>
</svg>
