<svg width="100%" height="100%" overflow="visible" style="display: block;" viewBox="0 -4.785 47.5971 47.5971" fill="none" xmlns="http://www.w3.org/2000/svg">
<g id="Group 163105">
<g id="Vector">
<path d="M21.1689 28.5277C22.119 29.5502 22.6469 30.8925 22.6469 32.2861V37.9529L15.0377 30.3873L18.4597 25.6573L21.1689 28.5277Z" fill="var(--fill-0, #004DFF)" style="fill:#004DFF;fill:color(display-p3 0.0000 0.3000 1.0000);fill-opacity:1;"/>
<path d="M13.021 32.0347L6.98446 31.8806L11.5062 37.9529H22.6469L13.021 32.0347Z" fill="var(--fill-0, #004DFF)" style="fill:#004DFF;fill:color(display-p3 0.0000 0.3000 1.0000);fill-opacity:1;"/>
<path d="M18.4597 22.2627L11.3372 29.0067L11.262 18.9401L18.4597 15.4862V22.2627Z" fill="var(--fill-0, #004DFF)" style="fill:#004DFF;fill:color(display-p3 0.0000 0.3000 1.0000);fill-opacity:1;"/>
<path d="M3.31666 25.6573L11.3372 29.0067L6.71677 21.0789L0 18.8003L3.31666 25.6573Z" fill="var(--fill-0, #004DFF)" style="fill:#004DFF;fill:color(display-p3 0.0000 0.3000 1.0000);fill-opacity:1;"/>
<path d="M8.46343 9.85671L7.91451 18.9401L2.4478 11.4826L5.4261 4.57491L8.46343 9.85671Z" fill="var(--fill-0, #004DFF)" style="fill:#004DFF;fill:color(display-p3 0.0000 0.3000 1.0000);fill-opacity:1;"/>
<path d="M18.4597 13.2082L7.91451 18.9401L11.305 11.4826H18.4597V13.2082Z" fill="var(--fill-0, #004DFF)" style="fill:#004DFF;fill:color(display-p3 0.0000 0.3000 1.0000);fill-opacity:1;"/>
<path d="M20.869 6.63847V0L11.5062 3.84553L11.262 9.35082L20.869 6.63847Z" fill="var(--fill-0, #004DFF)" style="fill:#004DFF;fill:color(display-p3 0.0000 0.3000 1.0000);fill-opacity:1;"/>
</g>
<g id="Vector_2">
<path d="M26.4282 28.6032C25.4781 29.6258 24.9503 30.968 24.9503 32.3616V38.0284L32.5594 30.4629L29.1374 25.7328L26.4282 28.6032Z" fill="var(--fill-0, #004DFF)" style="fill:#004DFF;fill:color(display-p3 0.0000 0.3000 1.0000);fill-opacity:1;"/>
<path d="M34.5761 32.1102L40.6127 31.9562L36.0909 38.0284H24.9503L34.5761 32.1102Z" fill="var(--fill-0, #004DFF)" style="fill:#004DFF;fill:color(display-p3 0.0000 0.3000 1.0000);fill-opacity:1;"/>
<path d="M29.1374 22.3382L36.26 29.0822L36.3351 19.0156L29.1374 15.5617V22.3382Z" fill="var(--fill-0, #004DFF)" style="fill:#004DFF;fill:color(display-p3 0.0000 0.3000 1.0000);fill-opacity:1;"/>
<path d="M44.2805 25.7328L36.26 29.0822L40.8804 21.1544L47.5971 18.8758L44.2805 25.7328Z" fill="var(--fill-0, #004DFF)" style="fill:#004DFF;fill:color(display-p3 0.0000 0.3000 1.0000);fill-opacity:1;"/>
<path d="M39.1337 9.93222L39.6826 19.0156L45.1493 11.5581L42.171 4.65041L39.1337 9.93222Z" fill="var(--fill-0, #004DFF)" style="fill:#004DFF;fill:color(display-p3 0.0000 0.3000 1.0000);fill-opacity:1;"/>
<path d="M29.1374 13.2837L39.6826 19.0156L36.2922 11.5581H29.1374V13.2837Z" fill="var(--fill-0, #004DFF)" style="fill:#004DFF;fill:color(display-p3 0.0000 0.3000 1.0000);fill-opacity:1;"/>
<path d="M26.7281 6.71398V0.0755087L36.0909 3.92104L36.3351 9.42633L26.7281 6.71398Z" fill="var(--fill-0, #004DFF)" style="fill:#004DFF;fill:color(display-p3 0.0000 0.3000 1.0000);fill-opacity:1;"/>
</g>
</g>
</svg>
